<svg width="55" height="11" viewBox="0 0 55 11" fill="none" xmlns="http://www.w3.org/2000/svg">
<path d="M18.8368 8.43816C18.7801 8.66564 18.5704 9.20887 18.4221 9.57555C18.1087 10.3813 17.5772 10.6609 16.5755 10.6609H11.8952C11.5288 10.6609 11.2443 10.6428 11.0177 10.6258C10.4874 10.5907 10.3186 10.4153 10.4343 9.94336C10.491 9.71588 10.5934 9.45332 10.8152 8.94517L13.7828 1.59347C13.9226 1.26074 14.0479 0.911041 14.1552 0.630372C14.2492 0.402895 14.4891 0.210501 14.8218 0.192394C15.2304 0.175418 15.6583 0.15731 16.1211 0.15731H16.2754C17.4313 0.15731 17.8821 0.279537 17.7399 0.857849C17.6796 1.10343 17.4771 1.61045 17.2059 2.24082L15.3304 6.87977C15.181 7.23513 15.0339 7.57805 14.8832 7.89154C14.8362 7.99 14.9158 8.10091 15.0315 8.09751C15.5618 8.0828 16.0741 8.06922 16.5394 8.06922H18.4848C18.8127 8.06922 18.9067 8.15636 18.8368 8.43703V8.43816ZM30.9589 2.08351C30.7419 3.4314 30.2694 6.60023 29.9573 8.80597C29.8656 9.4884 29.891 9.85621 29.8174 10.1539C29.774 10.3293 29.5896 10.4515 29.2835 10.5217C28.8339 10.6269 28.2866 10.662 27.9588 10.662C27.5345 10.662 27.1729 10.6439 26.8933 10.6099C26.1833 10.5228 26.0146 10.1901 26.1291 9.48953L26.1677 9.18057C26.1785 9.09343 26.1062 9.01647 26.0122 9.01647H23.7196C23.6617 9.01647 23.6087 9.04703 23.581 9.09343C23.3074 9.56649 23.1193 9.95807 22.9627 10.224C22.8301 10.4515 22.5721 10.5568 22.313 10.5918C21.8574 10.6439 21.3523 10.662 20.8895 10.662C20.4266 10.662 20.0264 10.6439 19.6552 10.5918C19.1911 10.5217 19.1357 10.2772 19.214 9.96146C19.2912 9.64684 19.4997 9.3492 19.8975 8.75391C20.5375 7.79307 21.2089 6.81413 21.8778 5.86235C21.9393 5.77407 21.8863 5.65637 21.7754 5.63713L18.5776 5.0724C18.3968 5.04071 18.4125 4.79287 18.5957 4.78155L21.8224 4.57671L24.7839 4.38205C24.931 4.37186 24.984 4.19418 24.8623 4.11496L23.8124 3.42913C23.7413 3.38273 23.7244 3.29106 23.7738 3.22429C24.0366 2.86553 24.2933 2.52036 24.5404 2.19102C24.7719 1.8764 25.2142 1.33317 25.5662 0.843137C25.8579 0.440242 26.0809 0.318015 26.4593 0.265956C27.0198 0.178813 27.7756 0.160705 28.4301 0.160705C30.6829 0.160705 31.2204 0.5636 30.9601 2.08577L30.9589 2.08351ZM27.5562 2.83611H27.4899C27.4357 2.83611 27.3851 2.86214 27.3573 2.90514C26.8511 3.67925 25.9603 5.1652 25.0624 6.64211C25.0033 6.74057 25.078 6.86166 25.1986 6.86166H26.5365C26.61 6.86166 26.6727 6.81526 26.6896 6.74849C26.9981 5.49001 27.3417 3.93954 27.5574 2.83498L27.5562 2.83611ZM10.4524 4.70912L7.1124 4.74194C7.00151 4.74194 6.92437 4.63895 6.96415 4.54162L7.31249 3.69396C7.46677 3.34199 7.59092 2.98889 7.66686 2.71954C7.68494 2.6539 7.74762 2.60976 7.81994 2.6109C8.93729 2.62787 10.1511 2.64372 11.1539 2.64372C12.0977 2.64372 12.3351 2.38115 12.6968 1.69872C12.9161 1.27885 13.103 0.75373 13.1596 0.526253C13.2283 0.246717 13.0764 0.158442 12.8076 0.158442C10.4777 0.158442 8.53832 0.176549 6.28554 0.176549C5.82389 0.176549 5.56836 0.351967 5.42251 0.788814C5.33211 1.05024 5.2381 1.30488 5.13444 1.57197C5.10912 1.63648 5.13444 1.70891 5.1947 1.74626L5.98179 2.23063C6.10835 2.30759 6.05652 2.49206 5.90586 2.50112L3.46745 2.64598L0.146731 2.84629C-0.0413025 2.85761 -0.0521506 3.11451 0.134677 3.13828L4.06771 3.65774C4.16775 3.67132 4.22802 3.76752 4.19186 3.85693L3.14803 6.39652C3.12272 6.45764 3.14442 6.52667 3.19986 6.56628L3.9074 7.0699C4.02311 7.15139 3.96887 7.32454 3.82423 7.33359L1.0206 7.52712L0.661412 7.55541C0.485432 7.56899 0.463736 7.80213 0.634894 7.844L2.20666 8.23332C2.29706 8.25595 2.34648 8.34649 2.31273 8.42911L2.09938 8.94744C1.8776 9.45558 1.77515 9.71814 1.7185 9.94562C1.60158 10.4187 1.62327 10.6281 2.15363 10.6631H3.91945C4.25092 10.645 4.53779 10.4176 4.63301 10.1901C4.74029 9.91054 4.87408 9.52462 5.00546 9.22697L5.85764 7.1876C5.88175 7.12988 5.94202 7.09254 6.00831 7.0948C7.08588 7.12762 8.23699 7.14346 8.85051 7.14346C9.52429 7.14346 9.90397 6.93296 10.2728 6.21545C10.4548 5.86574 10.7176 5.27045 10.7778 5.02487C10.8381 4.77928 10.7598 4.71025 10.4512 4.71025L10.4524 4.70912ZM53.4687 0.192394C53.242 0.175418 52.9576 0.15731 52.5912 0.15731H52.4562C51.9945 0.15731 51.5473 0.175418 51.1387 0.192394C50.8073 0.210501 50.5662 0.402895 50.4722 0.630372C50.3649 0.911041 50.2311 1.29583 50.0997 1.59347L49.0366 4.17607C49.0125 4.23379 48.9534 4.27114 48.8871 4.27001C48.1591 4.25643 47.4299 4.25529 46.726 4.25529C46.6151 4.25529 46.5403 4.15118 46.5813 4.05498L47.4889 1.87527C47.6746 1.43729 47.8132 1.10457 47.8698 0.877089C47.9868 0.404027 47.818 0.229741 47.2877 0.194657C47.0611 0.177681 46.7766 0.159574 46.4102 0.159574H46.2752C45.8135 0.159574 45.3663 0.177681 44.9577 0.194657C44.6263 0.212765 44.3864 0.405158 44.2912 0.632636C44.1839 0.913304 44.0585 1.26301 43.9187 1.59574L40.9319 8.94857C40.7101 9.45671 40.6077 9.71927 40.551 9.94675C40.4341 10.4198 40.6028 10.5941 41.1332 10.6292C41.3598 10.6462 41.6442 10.6643 42.0107 10.6643H42.1457C42.6073 10.6643 43.0545 10.6462 43.4643 10.6292C43.7958 10.6122 44.0356 10.4187 44.1309 10.1912C44.2381 9.91167 44.3719 9.52575 44.5033 9.22811L45.4592 6.92391C45.4821 6.86732 45.5399 6.82997 45.605 6.82997C46.3246 6.82997 47.0695 6.82998 47.7746 6.84356C47.8831 6.84582 47.9566 6.94881 47.9168 7.04387L47.4962 8.06695C47.4648 8.14391 47.5058 8.22879 47.5878 8.25821L48.6557 8.63055C48.8124 8.68488 48.7811 8.90104 48.6159 8.91462L47.0924 9.04703L45.4133 9.15115C45.2735 9.16247 45.2639 9.35146 45.4013 9.37523L46.6922 9.53707C46.7898 9.54952 46.8501 9.64232 46.82 9.73059C46.7923 9.81095 46.7694 9.88338 46.7537 9.94675C46.6368 10.4198 46.8055 10.5941 47.3371 10.6292C47.5637 10.6462 47.8481 10.6643 48.2146 10.6643H48.3496C48.8124 10.6643 49.2596 10.6462 49.6682 10.6292C49.9997 10.6122 50.2395 10.4187 50.3348 10.1912C50.442 9.91167 50.5758 9.52575 50.7072 9.22811L53.6748 1.87527C53.864 1.42032 53.999 1.10457 54.0557 0.877089C54.1726 0.404027 54.0038 0.229741 53.4723 0.194657L53.4687 0.192394ZM38.7358 4.28925C37.7835 4.00971 36.8916 3.79921 37.0603 3.11678C37.1809 2.62674 37.6594 2.32909 38.2946 2.32909C38.9684 2.32909 39.5024 2.66182 39.9507 3.34425C40.1171 3.60682 40.2135 3.76413 40.5209 3.76413C41.3297 3.76413 42.1553 3.15073 42.3879 2.20574C42.6989 0.944992 41.449 0 39.1757 0C38.0909 0 37.0085 0.205974 36.0695 0.606606C35.949 0.657534 35.9478 0.818239 36.0659 0.873694L36.7759 1.20189C36.9181 1.26753 36.8783 1.46785 36.7192 1.4803L34.0325 1.6908L32.4571 1.81529C32.2763 1.83 32.2619 2.07219 32.439 2.10614L33.6239 2.33475C33.7264 2.35399 33.7806 2.46038 33.7312 2.54639C33.5612 2.84064 33.4298 3.15865 33.3455 3.50156C32.9959 4.91962 33.6528 5.84764 35.0908 6.42482C36.2311 6.87977 37.076 6.96805 36.888 7.65048C36.7325 8.28085 36.0454 8.49022 35.5066 8.49022C34.4279 8.49022 33.8517 7.85985 33.3358 6.82771C33.2551 6.68738 33.1177 6.61721 32.926 6.61721C32.791 6.61721 32.5475 6.66927 32.3282 6.77452C31.6062 7.12422 31.0722 7.80666 30.9083 8.47211C30.5455 9.94223 31.717 10.8182 34.6243 10.8182C37.5316 10.8182 40.2231 9.2779 40.8186 6.86166C41.2031 5.30327 39.9411 4.63782 38.737 4.28812L38.7358 4.28925Z" fill="url(#paint0_linear_12197_57381)"/>
<defs>
<linearGradient id="paint0_linear_12197_57381" x1="0.000884434" y1="5.40966" x2="54.087" y2="5.40966" gradientUnits="userSpaceOnUse">
<stop stop-color="#C50044"/>
<stop offset="1" stop-color="#FF8E15"/>
</linearGradient>
</defs>
</svg>
