<svg width="24" height="24" viewBox="0 0 24 24" fill="none" xmlns="http://www.w3.org/2000/svg">
<path d="M17.71 0.15918C18.1446 0.198373 18.56 0.358263 18.9092 0.620117L18.9111 0.621094C19.7804 1.2535 20.4071 2.16439 20.6875 3.20215L20.71 3.28516L20.793 3.30762C21.8326 3.58817 22.7452 4.21654 23.3779 5.08789L23.3789 5.08984C23.6411 5.44021 23.8007 5.85701 23.8389 6.29297C23.877 6.72888 23.793 7.16703 23.5957 7.55762H23.5947C23.4007 7.94694 23.1017 8.27464 22.7314 8.50293C22.3613 8.73112 21.9348 8.85106 21.5 8.84961H16.833L16.8301 8.99707C16.8101 10.0561 16.7672 11.0624 16.6816 11.9863L16.667 12.1504H17.2021C17.5828 12.1428 17.9607 12.2185 18.3086 12.373C18.6564 12.5276 18.9655 12.7574 19.2148 13.0449C19.4642 13.3325 19.6481 13.6709 19.752 14.0371C19.8558 14.4034 19.8778 14.7884 19.8164 15.1641L19.8154 15.166C19.7068 15.9088 19.3362 16.5887 18.7695 17.0811C18.2029 17.5734 17.4782 17.8456 16.7275 17.8496H15.3037L15.2627 17.9365C14.3827 19.8377 12.5669 21.3178 10.458 22.3232C8.35067 23.3279 5.96941 23.8496 3.98633 23.8496L3.79004 23.8447C3.33231 23.8197 2.8821 23.713 2.46094 23.5293C1.9796 23.3193 1.54609 23.0125 1.1875 22.6289C0.828837 22.2451 0.551975 21.7915 0.375 21.2969C0.198104 20.8024 0.124496 20.277 0.158203 19.7529V19.7461C0.211064 17.1115 0.887678 14.527 2.13184 12.2041L2.14941 12.1709V11.6006C2.1557 9.83741 2.77815 8.13192 3.90918 6.7793C5.03982 5.42726 6.60742 4.51196 8.34082 4.19336L8.3418 4.19434C8.76799 4.12158 9.20499 4.14193 9.62207 4.25586C9.98699 4.35554 10.329 4.52429 10.6299 4.75195L10.7568 4.85352C11.0951 5.13774 11.3681 5.49203 11.5566 5.8916C11.7452 6.29131 11.8453 6.72798 11.8496 7.16992L11.8506 7.33203L12.0127 7.31738C12.9376 7.23185 13.945 7.18891 15.002 7.16895L15.1494 7.16602V2.5C15.1494 2.06365 15.2706 1.63585 15.5 1.26465C15.7294 0.893466 16.058 0.593614 16.4482 0.398438C16.8385 0.203319 17.2754 0.120067 17.71 0.15918ZM2.65527 15.1797C2.20279 16.7063 1.93247 18.281 1.84961 19.8711C1.8308 20.1751 1.87659 20.4797 1.98438 20.7646C2.09223 21.0497 2.26008 21.3089 2.47559 21.5244C2.69097 21.7397 2.94956 21.9069 3.23438 22.0146C3.51943 22.1225 3.82471 22.1683 4.12891 22.1494L4.12793 22.1484C5.7199 22.0662 7.29688 21.797 8.8252 21.3438L8.96094 21.3037L8.92871 21.166C8.57921 19.6848 7.82364 18.3296 6.74707 17.2539C5.6706 16.1783 4.31531 15.4245 2.83398 15.0762L2.69531 15.0439L2.65527 15.1797ZM14.9883 8.8584C8.74385 8.96554 5.26515 10.1219 3.46094 13.2959L3.36523 13.4639L3.55176 13.5146C5.21054 13.9682 6.7224 14.8466 7.93848 16.0625C9.15438 17.2783 10.0326 18.7897 10.4863 20.4482L10.5371 20.6348L10.7051 20.5391C13.877 18.7328 15.0345 15.2554 15.1416 9.01074L15.1436 8.85547L14.9883 8.8584ZM16.4189 13.9756C16.3082 14.6443 16.1607 15.3064 15.9775 15.959L15.9248 16.1504H16.7285C17.0706 16.1487 17.4017 16.024 17.6602 15.7998C17.9184 15.5756 18.0878 15.2661 18.1377 14.9277L18.1367 14.9268C18.1631 14.7931 18.1605 14.6553 18.126 14.5234C18.0907 14.3884 18.0243 14.2634 17.9326 14.1582C17.8409 14.053 17.7257 13.9704 17.5967 13.917C17.4999 13.8769 17.3971 13.8544 17.293 13.8496H16.4404L16.4189 13.9756ZM8.77539 5.85059L8.63867 5.86621C7.65539 6.03776 6.73317 6.46191 5.96289 7.09668C5.19274 7.73139 4.60043 8.55507 4.24414 9.4873L4.07617 9.92676L4.46777 9.66602C6.13416 8.55542 8.03308 7.84212 10.0186 7.58105L10.1494 7.56348V7.2002C10.1494 7.00055 10.1058 6.80303 10.0215 6.62207C9.93715 6.44118 9.81396 6.2807 9.66113 6.15234H9.66016C9.52226 6.03221 9.35968 5.94406 9.18359 5.89453C9.05064 5.85716 8.91261 5.84236 8.77539 5.85059ZM17.5703 1.85547C17.4495 1.84449 17.328 1.86748 17.2197 1.92188C17.1083 1.97179 17.0141 2.05345 16.9482 2.15625C16.8988 2.23361 16.8666 2.32084 16.8545 2.41113L16.8496 2.5V7.15039H21.499V7.14941C21.6195 7.1521 21.7381 7.12063 21.8408 7.05762C21.9447 6.99388 22.028 6.90121 22.0801 6.79102L22.0791 6.79004C22.1349 6.68171 22.1606 6.56 22.1504 6.43848C22.1426 6.34577 22.1144 6.25635 22.0693 6.17578L22.0186 6.09766C21.7639 5.75154 21.4406 5.4614 21.0693 5.24512C20.6991 5.02947 20.2887 4.89188 19.8633 4.84082H19.8643C19.6898 4.81159 19.5284 4.72861 19.4033 4.60352C19.3097 4.50982 19.2397 4.39601 19.1982 4.27148L19.166 4.14355C19.115 3.71829 18.9783 3.30765 18.7627 2.9375C18.5729 2.61177 18.3256 2.32368 18.0342 2.08594L17.9072 1.9873C17.8097 1.91246 17.6928 1.86664 17.5703 1.85547Z" fill="#757575" stroke="white" stroke-width="0.3"/>
</svg>
